<?xml version="1.0" standalone="no"?>
<!DOCTYPE svg PUBLIC "-//W3C//DTD SVG 20010904//EN"
 "http://www.w3.org/TR/2001/REC-SVG-20010904/DTD/svg10.dtd">
<svg version="1.0" xmlns="http://www.w3.org/2000/svg"
 width="1280.000000pt" height="529.000000pt" viewBox="0 0 1280.000000 529.000000"
 preserveAspectRatio="xMidYMid meet">
<metadata>
Created by potrace 1.16, written by Peter Selinger 2001-2019
</metadata>
<g transform="translate(0.000000,529.000000) scale(0.100000,-0.100000)"
fill="#000000" stroke="none">
<path d="M6562 5253 c-34 -20 -142 -99 -240 -174 -228 -178 -443 -332 -561
-404 -283 -173 -529 -263 -770 -284 -151 -13 -969 -124 -1271 -172 -838 -133
-1861 -365 -2380 -539 -232 -77 -332 -121 -667 -293 -451 -231 -592 -340 -643
-493 -25 -75 -21 -99 32 -159 40 -46 113 -86 246 -136 111 -42 60 -60 -99 -35
-141 23 -163 21 -188 -10 -14 -18 -21 -41 -21 -72 0 -82 88 -176 250 -267 47
-27 153 -92 236 -146 590 -381 1234 -672 1878 -849 414 -114 835 -185 1236
-209 343 -21 1083 -33 1268 -21 l173 11 34 -30 c19 -16 90 -62 157 -102 341
-200 549 -339 750 -501 101 -81 294 -255 363 -327 36 -38 43 -41 93 -41 47 0
58 4 82 30 67 72 73 165 31 495 -39 309 -59 393 -132 536 -21 44 -40 82 -42
86 -1 3 12 11 28 16 17 5 176 63 355 129 623 229 899 320 1071 353 46 8 126
29 178 46 297 95 1149 286 1456 325 178 23 442 23 620 0 95 -12 170 -29 280
-65 543 -177 737 -230 1615 -436 482 -113 508 -117 670 -113 76 2 141 6 145
10 4 3 -5 38 -19 78 -14 39 -26 84 -26 100 0 33 -34 130 -73 205 -41 82 -136
220 -274 400 -155 202 -232 318 -280 421 -46 101 -48 122 -25 236 18 86 39
135 200 465 223 457 288 639 307 858 3 39 8 91 11 118 5 45 4 47 -21 47 -65 0
-435 -136 -1390 -513 -681 -268 -778 -304 -915 -339 -249 -63 -314 -71 -618
-75 -314 -6 -448 4 -617 42 -153 35 -597 154 -1145 306 -701 196 -788 217
-993 244 -205 26 -221 30 -211 54 45 105 60 346 44 720 -15 387 -21 432 -54
476 -34 45 -55 44 -134 -2z m-5140 -2218 c69 -45 107 -142 87 -219 -33 -127
-170 -199 -287 -150 -110 45 -161 173 -113 280 24 52 94 112 140 120 20 3 41
7 46 8 22 6 92 -16 127 -39z"/>
</g>
</svg>
