<svg xmlns="http://www.w3.org/2000/svg" data-name="Layer 1" viewBox="0 0 64 80" x="0px" y="0px"><title>song-queue</title><path d="M58.59,17.12h-32a1,1,0,0,1-1-1V10.78a1,1,0,0,1,1-1h32a1,1,0,0,1,1,1v5.34A1,1,0,0,1,58.59,17.12Zm0,18.66h-32a1,1,0,0,1-1-1V29.45a1,1,0,0,1,1-1h32a1,1,0,0,1,1,1v5.33A1,1,0,0,1,58.59,35.78Zm0,18.44h-48a1,1,0,0,1-1-1V47.88a1,1,0,0,1,1-1h48a1,1,0,0,1,1,1v5.34A1,1,0,0,1,58.59,54.22ZM5.41,34.37a1,1,0,0,1-1-1V12.19a1,1,0,0,1,1.5-.86L24.26,21.92a1,1,0,0,1,0,1.73L5.91,34.24A1,1,0,0,1,5.41,34.37Z"/></svg>